<!-- Uploaded to: SVG Repo, www.svgrepo.com, Generator: SVG Repo Mixer Tools -->
<svg height="800px" width="800px" version="1.1" id="Layer_1" xmlns="http://www.w3.org/2000/svg" xmlns:xlink="http://www.w3.org/1999/xlink" 
	 viewBox="0 0 512 512" xml:space="preserve">
<path style="fill:#E8E8E8;" d="M218.743,76.624h-79.061c-7.159,0-12.962,5.804-12.962,12.962v101.873h104.986V89.587
	C231.706,82.427,225.902,76.624,218.743,76.624z"/>
<path style="fill:#FF6361;" d="M218.743,76.624h-79.061c-7.159,0-12.962,5.804-12.962,12.962v30.477h104.986V89.587
	C231.706,82.427,225.902,76.624,218.743,76.624z"/>
<path style="opacity:0.15;enable-background:new    ;" d="M147.942,178.67c-3.039,0-5.502-2.464-5.502-5.502V76.797
	c0-0.059,0.008-0.115,0.009-0.173h-2.766c-7.159,0-12.962,5.804-12.962,12.962v101.873h104.986V178.67H147.942z"/>
<path style="fill:#E8E8E8;" d="M428.786,191.459H87.782c-8.81,0-15.952,7.143-15.952,15.952v77.216h372.909v-77.216
	C444.739,198.602,437.597,191.459,428.786,191.459z"/>
<path style="fill:#7D868C;" d="M292.039,215.753h-40.873c-5.824,0-10.545,4.721-10.545,10.545v58.329h61.962v-58.329
	C302.584,220.475,297.863,215.753,292.039,215.753z"/>
<g>
	<circle style="fill:#333E48;" cx="282.246" cy="253.148" r="8.105"/>
	<path style="fill:#333E48;" d="M444.739,215.753h-65.437c-4.676,0-8.466,3.791-8.466,8.466v27.648c0,4.676,3.791,8.466,8.466,8.466
		h65.437V215.753z"/>
	<circle style="fill:#333E48;" cx="149.005" cy="238.046" r="22.29"/>
</g>
<path style="fill:#FFFFFF;" d="M149.01,268.459c-16.771,0-30.415-13.644-30.415-30.415c0-16.77,13.644-30.415,30.415-30.415
	s30.415,13.644,30.415,30.415S165.781,268.459,149.01,268.459z M149.01,223.879c-7.811,0-14.165,6.354-14.165,14.165
	c0,7.811,6.355,14.165,14.165,14.165s14.165-6.355,14.165-14.165S156.82,223.879,149.01,223.879z"/>
<path style="opacity:0.15;enable-background:new    ;" d="M98.115,271.93c-4.046,0-7.327-3.28-7.327-7.327v-71.572
	c0-0.532,0.035-1.055,0.091-1.572h-3.097c-8.81,0-15.952,7.143-15.952,15.952v77.216h372.909V271.93H98.115z"/>
<path style="fill:#E8E8E8;" d="M367.203,435.376H144.797c-75.482,0-136.672-61.19-136.672-136.672l0,0
	c0-7.774,6.302-14.077,14.077-14.077h467.596c7.774,0,14.077,6.303,14.077,14.077l0,0
	C503.875,374.186,442.685,435.376,367.203,435.376z"/>
<path style="fill:#FF6361;" d="M489.798,284.628H22.202c-7.774,0-14.077,6.302-14.077,14.077l0,0c0,10.428,1.173,20.582,3.385,30.34
	h488.979c2.212-9.759,3.385-19.912,3.385-30.34l0,0C503.875,290.931,497.573,284.628,489.798,284.628z"/>
<path style="opacity:0.15;enable-background:new    ;" d="M381.722,419.814H159.317c-74.985,0-135.855-60.391-136.653-135.186
	h-0.462c-7.774,0-14.077,6.303-14.077,14.077l0,0c0,75.482,61.19,136.672,136.672,136.672h222.406
	c43.279,0,81.853-20.122,106.895-51.515C449.772,406.184,417.341,419.814,381.722,419.814z"/>
<circle style="fill:#333E48;" cx="215.057" cy="376.878" r="22.29"/>
<path style="fill:#FFFFFF;" d="M215.056,407.291c-16.77,0-30.415-13.644-30.415-30.415c0-16.771,13.644-30.415,30.415-30.415
	s30.415,13.644,30.415,30.415C245.471,393.647,231.827,407.291,215.056,407.291z M215.056,362.71
	c-7.811,0-14.165,6.355-14.165,14.165c0,7.81,6.354,14.165,14.165,14.165c7.81,0,14.165-6.354,14.165-14.165
	C229.221,369.064,222.866,362.71,215.056,362.71z"/>
<circle style="fill:#333E48;" cx="122.072" cy="376.878" r="22.29"/>
<path style="fill:#FFFFFF;" d="M122.077,407.291c-16.771,0-30.415-13.644-30.415-30.415c0-16.771,13.644-30.415,30.415-30.415
	c16.77,0,30.415,13.644,30.415,30.415C152.492,393.647,138.848,407.291,122.077,407.291z M122.077,362.71
	c-7.81,0-14.165,6.355-14.165,14.165c0,7.81,6.355,14.165,14.165,14.165s14.165-6.354,14.165-14.165
	C136.242,369.064,129.888,362.71,122.077,362.71z"/>
<circle style="fill:#333E48;" cx="308.03" cy="376.878" r="22.29"/>
<path style="fill:#FFFFFF;" d="M308.035,407.291c-16.771,0-30.415-13.644-30.415-30.415c0-16.771,13.644-30.415,30.415-30.415
	c16.77,0,30.415,13.644,30.415,30.415C338.45,393.647,324.805,407.291,308.035,407.291z M308.035,362.71
	c-7.811,0-14.165,6.355-14.165,14.165c0,7.81,6.355,14.165,14.165,14.165c7.81,0,14.165-6.354,14.165-14.165
	C322.199,369.064,315.845,362.71,308.035,362.71z"/>
<g>
	<path style="fill:#333E48;" d="M392.174,407.46c-9.414,0-18.094-4.726-23.22-12.642c-2.439-3.767-1.363-8.798,2.404-11.237
		c3.766-2.441,8.798-1.363,11.237,2.404c2.118,3.271,5.698,5.223,9.579,5.223c3.881,0,7.461-1.952,9.578-5.223
		c2.439-3.768,7.469-4.844,11.237-2.405c3.767,2.439,4.844,7.47,2.405,11.237C410.269,402.734,401.589,407.46,392.174,407.46z"/>
	<path style="fill:#333E48;" d="M392.174,407.46c-4.487,0-8.125-3.638-8.125-8.125v-47.084c0-4.487,3.638-8.125,8.125-8.125
		c4.487,0,8.125,3.638,8.125,8.125v47.084C400.3,403.822,396.662,407.46,392.174,407.46z"/>
	<path style="fill:#333E48;" d="M406.328,373.521H378.02c-4.487,0-8.125-3.638-8.125-8.125c0-4.487,3.638-8.125,8.125-8.125h28.308
		c4.487,0,8.125,3.638,8.125,8.125C414.454,369.883,410.816,373.521,406.328,373.521z"/>
</g>
<path style="fill:#1E252B;" d="M489.798,276.503h-36.934v-69.09c0-13.277-10.801-24.079-24.079-24.079H239.831V89.586
	c0-11.628-9.46-21.088-21.087-21.088h-79.061c-11.628,0-21.088,9.46-21.088,21.088v93.748H87.782
	c-13.277,0-24.078,10.801-24.078,24.079v69.09H22.201C9.959,276.503,0,286.463,0,298.705c0,79.841,64.956,144.797,144.797,144.797
	h222.406c79.841,0,144.797-64.956,144.797-144.797C512,286.463,502.041,276.503,489.798,276.503z M134.845,89.586
	c0-2.667,2.17-4.837,4.837-4.837h79.061c2.667,0,4.837,2.17,4.837,4.837v22.353h-88.735V89.586z M134.845,128.189h88.736v55.145
	h-88.736V128.189z M79.955,207.413c0-4.316,3.511-7.828,7.827-7.828h341.004c4.316,0,7.828,3.511,7.828,7.828v69.09H310.709v-50.204
	c0-10.295-8.375-18.671-18.671-18.671h-40.873c-10.295,0-18.671,8.375-18.671,18.671v50.204H79.955V207.413z M294.459,226.299
	v50.204h-45.712v-50.204c0-1.335,1.086-2.42,2.42-2.42h40.873C293.374,223.879,294.459,224.964,294.459,226.299z M367.203,427.251
	H144.797c-57.487,0-106.278-37.933-122.666-90.081h467.738C473.481,389.32,424.69,427.251,367.203,427.251z M493.823,320.92H18.177
	c-1.262-7.218-1.926-14.64-1.926-22.215c0-3.281,2.669-5.952,5.952-5.952h467.596c3.281,0,5.952,2.67,5.952,5.952
	C495.75,306.28,495.087,313.702,493.823,320.92z"/>
</svg>
